G04 #@! TF.FileFunction,Soldermask,Top*
%FSLAX46Y46*%
G04 Gerber Fmt 4.6, Leading zero omitted, Abs format (unit mm)*
G04 Created by KiCad (PCBNEW 4.0.7+dfsg1-1~bpo9+1) date Mon Mar  5 23:37:55 2018*
%MOMM*%
%LPD*%
G01*
G04 APERTURE LIST*
%ADD10C,0.100000*%
%ADD11R,2.100000X2.100000*%
%ADD12O,2.100000X2.100000*%
%ADD13C,4.000000*%
%ADD14R,1.900000X1.700000*%
%ADD15R,1.950000X1.000000*%
%ADD16C,1.900000*%
%ADD17C,3.500000*%
%ADD18R,2.400000X3.000000*%
%ADD19O,2.400000X3.000000*%
%ADD20O,3.900000X3.900000*%
%ADD21R,2.200000X2.200000*%
%ADD22O,2.200000X2.200000*%
%ADD23R,4.400000X2.900000*%
G04 APERTURE END LIST*
D10*
D11*
X143000000Y-66720000D03*
D12*
X143000000Y-64180000D03*
X143000000Y-61640000D03*
X143000000Y-59100000D03*
X143000000Y-56560000D03*
X143000000Y-54020000D03*
X143000000Y-51480000D03*
X143000000Y-48940000D03*
D11*
X130300000Y-66720000D03*
D12*
X130300000Y-64180000D03*
X130300000Y-61640000D03*
X130300000Y-59100000D03*
X130300000Y-56560000D03*
X130300000Y-54020000D03*
X130300000Y-51480000D03*
X130300000Y-48940000D03*
D11*
X150620000Y-66720000D03*
D12*
X150620000Y-64180000D03*
X150620000Y-61640000D03*
X150620000Y-59100000D03*
X150620000Y-56560000D03*
X150620000Y-54020000D03*
X150620000Y-51480000D03*
X150620000Y-48940000D03*
D11*
X163320000Y-66720000D03*
D12*
X163320000Y-64180000D03*
X163320000Y-61640000D03*
X163320000Y-59100000D03*
X163320000Y-56560000D03*
X163320000Y-54020000D03*
X163320000Y-51480000D03*
X163320000Y-48940000D03*
D11*
X164740000Y-84030000D03*
D12*
X167280000Y-84030000D03*
X164740000Y-86570000D03*
X167280000Y-86570000D03*
X164740000Y-89110000D03*
X167280000Y-89110000D03*
X164740000Y-91650000D03*
X167280000Y-91650000D03*
X164740000Y-94190000D03*
X167280000Y-94190000D03*
X164740000Y-96730000D03*
X167280000Y-96730000D03*
X164740000Y-99270000D03*
X167280000Y-99270000D03*
X164740000Y-101810000D03*
X167280000Y-101810000D03*
X164740000Y-104350000D03*
X167280000Y-104350000D03*
X164740000Y-106890000D03*
X167280000Y-106890000D03*
X164740000Y-109430000D03*
X167280000Y-109430000D03*
X164740000Y-111970000D03*
X167280000Y-111970000D03*
D11*
X183640000Y-99740000D03*
D12*
X181100000Y-99740000D03*
D11*
X183640000Y-90850000D03*
D12*
X181100000Y-90850000D03*
X178560000Y-90850000D03*
D11*
X182880000Y-109220000D03*
D12*
X185420000Y-109220000D03*
X182880000Y-111760000D03*
X185420000Y-111760000D03*
X182880000Y-114300000D03*
X185420000Y-114300000D03*
D13*
X179280000Y-117870000D03*
D11*
X170940000Y-66720000D03*
D12*
X170940000Y-64180000D03*
X170940000Y-61640000D03*
X170940000Y-59100000D03*
X170940000Y-56560000D03*
D11*
X122680000Y-66720000D03*
D12*
X122680000Y-64180000D03*
X122680000Y-61640000D03*
X122680000Y-59100000D03*
X122680000Y-56560000D03*
D11*
X131030000Y-78260000D03*
D12*
X131030000Y-75720000D03*
X133570000Y-78260000D03*
X133570000Y-75720000D03*
X136110000Y-78260000D03*
X136110000Y-75720000D03*
X138650000Y-78260000D03*
X138650000Y-75720000D03*
X141190000Y-78260000D03*
X141190000Y-75720000D03*
X143730000Y-78260000D03*
X143730000Y-75720000D03*
X146270000Y-78260000D03*
X146270000Y-75720000D03*
X148810000Y-78260000D03*
X148810000Y-75720000D03*
X151350000Y-78260000D03*
X151350000Y-75720000D03*
X153890000Y-78260000D03*
X153890000Y-75720000D03*
X156430000Y-78260000D03*
X156430000Y-75720000D03*
X158970000Y-78260000D03*
X158970000Y-75720000D03*
D11*
X125260000Y-111970000D03*
D12*
X122720000Y-111970000D03*
X125260000Y-109430000D03*
X122720000Y-109430000D03*
X125260000Y-106890000D03*
X122720000Y-106890000D03*
X125260000Y-104350000D03*
X122720000Y-104350000D03*
X125260000Y-101810000D03*
X122720000Y-101810000D03*
X125260000Y-99270000D03*
X122720000Y-99270000D03*
X125260000Y-96730000D03*
X122720000Y-96730000D03*
X125260000Y-94190000D03*
X122720000Y-94190000D03*
X125260000Y-91650000D03*
X122720000Y-91650000D03*
X125260000Y-89110000D03*
X122720000Y-89110000D03*
X125260000Y-86570000D03*
X122720000Y-86570000D03*
X125260000Y-84030000D03*
X122720000Y-84030000D03*
D14*
X180166000Y-104394000D03*
X177466000Y-104394000D03*
D15*
X173068000Y-108585000D03*
X173068000Y-109855000D03*
X173068000Y-111125000D03*
X173068000Y-112395000D03*
X178468000Y-112395000D03*
X178468000Y-111125000D03*
X178468000Y-109855000D03*
X178468000Y-108585000D03*
D16*
X181886000Y-50210000D03*
X181886000Y-47210000D03*
X184886000Y-50210000D03*
X184886000Y-47210000D03*
D17*
X183386000Y-42890000D03*
D18*
X140460000Y-41320000D03*
D19*
X137920000Y-41320000D03*
X135380000Y-41320000D03*
X132840000Y-41320000D03*
D18*
X160780000Y-41320000D03*
D19*
X158240000Y-41320000D03*
X155700000Y-41320000D03*
X153160000Y-41320000D03*
D11*
X158970000Y-117740000D03*
D12*
X158970000Y-120280000D03*
X156430000Y-117740000D03*
X156430000Y-120280000D03*
X153890000Y-117740000D03*
X153890000Y-120280000D03*
X151350000Y-117740000D03*
X151350000Y-120280000D03*
X148810000Y-117740000D03*
X148810000Y-120280000D03*
X146270000Y-117740000D03*
X146270000Y-120280000D03*
X143730000Y-117740000D03*
X143730000Y-120280000D03*
X141190000Y-117740000D03*
X141190000Y-120280000D03*
X138650000Y-117740000D03*
X138650000Y-120280000D03*
X136110000Y-117740000D03*
X136110000Y-120280000D03*
X133570000Y-117740000D03*
X133570000Y-120280000D03*
X131030000Y-117740000D03*
X131030000Y-120280000D03*
D20*
X186180000Y-64030000D03*
D21*
X183640000Y-80690000D03*
D22*
X186180000Y-80690000D03*
X188720000Y-80690000D03*
D23*
X124968000Y-46908000D03*
X118868000Y-46908000D03*
X168652000Y-46908000D03*
X174752000Y-46908000D03*
M02*
